<svg xmlns="http://www.w3.org/2000/svg" viewBox="0 0 800 600" width="800" height="600">
  <rect width="800" height="600" fill="#FBF6EF"/>
  <circle cx="660" cy="140" r="130" fill="#1F4B4A" opacity="0.08"/>
  <circle cx="120" cy="480" r="140" fill="#E08E45" opacity="0.10"/>

  <g transform="translate(400,320)" stroke="#1F4B4A" stroke-width="12" fill="none" stroke-linecap="round" stroke-linejoin="round">
    <circle cx="0" cy="-150" r="34" fill="#E08E45" stroke="none"/>
    <path d="M -50 40 C -50 -20, -25 -66, 0 -66 C 25 -66, 50 -20, 50 40"/>
    <line x1="-50" y1="-10" x2="-100" y2="-60"/>
    <line x1="50" y1="-10" x2="100" y2="-60"/>
    <circle cx="-112" cy="-70" r="14" fill="#C36F2B" stroke="none"/>
    <circle cx="112" cy="-70" r="14" fill="#C36F2B" stroke="none"/>
    <line x1="-30" y1="40" x2="-40" y2="140"/>
    <line x1="30" y1="40" x2="40" y2="140"/>
  </g>
  <g stroke="#C36F2B" stroke-width="8" fill="none" stroke-linecap="round">
    <path d="M 560 210 C 585 190, 585 170, 565 155" />
    <circle cx="558" cy="216" r="10" fill="#C36F2B" stroke="none"/>
  </g>
  <text x="400" y="520" text-anchor="middle" font-family="'Zen Kaku Gothic New','Noto Sans JP',sans-serif" font-size="26" font-weight="700" fill="#1F4B4A">POWER REHAB</text>
</svg>
