<svg xmlns="http://www.w3.org/2000/svg" viewBox="0 0 300 64" width="300" height="64">
  <g>
    <circle cx="30" cy="32" r="22" fill="#FBF6EF"/>
    <circle cx="30" cy="32" r="22" fill="#E08E45" opacity="0.18"/>
    <path d="M30 14 C 20 14, 12 22, 12 32 C 12 42, 20 50, 30 50 C 26 44, 24 38, 24 32 C 24 26, 26 20, 30 14 Z" fill="#1F4B4A"/>
    <path d="M30 14 C 40 14, 48 22, 48 32 C 48 42, 40 50, 30 50 C 34 44, 36 38, 36 32 C 36 26, 34 20, 30 14 Z" fill="#E08E45"/>
    <circle cx="30" cy="32" r="6" fill="#FBF6EF"/>
  </g>
  <text x="66" y="28" font-family="'Zen Kaku Gothic New','Noto Sans JP',sans-serif" font-size="20" font-weight="700" fill="#1F4B4A">リハビリデイ</text>
  <text x="66" y="52" font-family="'Zen Kaku Gothic New','Noto Sans JP',sans-serif" font-size="24" font-weight="900" fill="#C36F2B">こもれび</text>
</svg>
